<?xml version="1.0" encoding="utf-8"?>
<!-- Generator: Adobe Illustrator 25.4.2, SVG Export Plug-In . SVG Version: 6.00 Build 0)  -->
<svg version="1.1" id="Layer_1" xmlns="http://www.w3.org/2000/svg" xmlns:xlink="http://www.w3.org/1999/xlink" x="0px" y="0px"
	 viewBox="0 0 835 856.5" style="enable-background:new 0 0 835 856.5;" xml:space="preserve">
<style type="text/css">
	.st0{stroke:#000000;stroke-miterlimit:10;}
	.st1{fill:#3D293D;}
	.st2{fill:#F5DC8E;stroke:#3D293D;stroke-miterlimit:10;}
	.st3{fill:#EC98A0;}
	.st4{fill:#F7C9C9;}
</style>
<g>
	<g>
		<path class="st0" d="M207.5,667.9c0,1.1-0.4,2.1-1.1,2.9c-0.8,1-1.4,1.8-2,2.7s-1,2.6-0.9,5c0.1,1.8,0.1,3.5,0,5.3
			c-2.1,21.6-3.7,43.3-3.8,64.9c-0.1,10.5,0,15.7,0,15.3c0.4,7.6,1.9,11.7,4.6,12.4v1.6c-0.4,1.1-1.4,2-2.6,2.1
			c-6.4,0.7-10.1-5.5-11.4-18.5c-0.5-5.1-0.6-10.2-0.2-15.3l4-52.5c-3.8,15-7.2,30.5-11.2,44.9c-3.1,10.8-8.6,33.8-20.2,36.7
			c-2.5,0.7-6-1.3-9.1-4.8c-2.5-2.7-4.4-5.8-5.8-9.2c-4-11.1-7.3-22.4-9.7-34c-2.6-11.6-5.1-23.2-7.7-34.8c-0.4,1-0.5,1.5-0.9,2.6
			c-1.3,14.3-2.7,28.7-2.4,43.1c0.5,12.2,1,24.5,1.5,36.7c0.2,3.8,1.4,5.8,3.6,5.8c0.1,2.9-3.9,6-7.3,5.4
			c-6.4-1.1-6.7-17.5-6.8-25.6c-0.2-11.8,0.6-24.2,1.2-36.2s1.2-24.2,1.2-36.2c0-1.3-0.1-2.7-0.5-4c-0.2-0.6-0.4-1.1-0.5-1.7
			c0-4.2,4-6.9,12.1-8.1c1.5-0.2,3.3,0.6,5.5,2.6c0.3,3.3,0.6,8.3,1.4,14.6c1.5,13.4,5.3,27,9,40c2.8,9.8,8.7,31,14.4,31.3
			s13.2-23.4,15.6-32.3c3.5-12.9,6.1-26.3,8.5-39.7c1.3-4.2,3.1-10.3,5-18c1.2-4.9,4.7-7.8,10.5-8.5c1.4-0.1,2.8,0.1,4,0.7
			C206.8,665.4,207.5,666.6,207.5,667.9z"/>
		<path class="st0" d="M262.5,774.7c0,1.5-1.1,2.3-3.3,2.5c-2.4,0.2-3.9-0.8-4.4-2.9c-0.2-2.1-0.2-4.2-0.2-6.3
			c0-0.9-0.1-1.7-0.5-2.5c-5.7,4.9-11.8,7.6-18.4,8.2c-4.6,0.4-9.2-0.6-13.2-2.8c-4.8-2.5-7.3-6-7.3-10.5s2.9-9,8.7-13.8
			c5.3-4.4,10.1-6.8,14.6-7.2c6-0.5,9-0.8,15.1-1.3c0.7-1,1-2.2,0.9-3.5c0-7.2-0.6-12.6-1.7-16.2c-1.8-6-5.4-8.7-10.8-8.3
			c-3.9,0.3-7.4,3.3-10.7,8.7c-3,5-4.4,9.7-4.4,14v1.8c0.1,0.7-0.4,1.3-1.1,1.4c-0.1,0-0.1,0-0.2,0c-1,0.1-2.1-0.4-3.4-1.6
			c-1-0.8-1.7-1.9-1.8-3.2c0-3,0.9-6.9,2.6-11.6c1.3-3.9,3.2-7.6,5.6-11c2.3-3,5.7-4.9,9.4-5.2c5.7-0.6,11.4,1,16,4.4
			c5.2,3.7,7.8,8.6,7.9,14.5C262.1,739.9,262.3,757.3,262.5,774.7z M254.4,749.7c0-4.3-3.1-6.2-9.4-5.7c-4.6,0.3-9.1,1.7-13.1,4
			c-4.8,2.8-7.2,6.6-7.2,11.3c-0.1,2.7,1.4,5.2,3.8,6.4c2.3,1.2,5,1.7,7.6,1.4c4.6-0.5,9-2.5,12.4-5.6
			C252.4,758.2,254.4,754.2,254.4,749.7L254.4,749.7z"/>
		<path class="st0" d="M318,718.1c0,0.6,0,1.6-0.2,2.8c-2.1,10.9-3.2,19.6-3.2,26.1c0,3.3,0.2,8.4,0.5,15.3c0.3,6.9,0.5,12,0.5,15.5
			c0,6.7-0.5,11.5-1.5,14.6c-1.3,3.7-3.8,7-7,9.3c-3.1,2.4-6.8,3.9-10.7,4.2c-5,0.1-10-0.5-14.8-1.9c-7.1-1.9-10.7-4.4-10.7-7.8
			c0-2.9,1.1-4.4,3.2-4.6c0.9-0.1,1.7,0.5,2.4,1.8c0.5,1.1,1.2,2.1,2,2.9c0.8,0.8,3,1.4,6.2,2c2.3,0.5,4.6,0.8,6.9,0.8
			c5.4-0.2,10.3-3.2,13-7.9c2.5-4.1,3.8-9.4,3.8-15.9c0-6.9-0.6-12.3-1.7-16.3c-4.9,7-10.7,10.8-17.5,11.2c-2.5,0-5-0.5-7.2-1.7
			c-2.3-1-4.4-2.4-6.1-4.3c-2.7-3.2-4.1-8.6-4.1-16c0-9.7,2.1-20.8,4.7-29.8c2.5-8.7,7.1-20.1,16-21.6c4.7-0.8,10.9,4.4,16.8,14.2
			c0.9,1.6,1.8,3.1,2.9,4.5C314.2,716,316.2,716.9,318,718.1z M308.9,727.4c0-2.3-1.7-4.3-2.3-5.5c-1.2-2.6-1.4-8.3-3.2-11.4
			c-2.3-3.8-5.5-5.7-9.5-5.4c-2.8,0.2-5.5,3.6-8.2,10.4c-1.9,4.5-3.3,9.3-4.1,14.2c-0.9,5.5-1.4,11-1.5,16.5
			c0,13.2,3.6,19.6,10.8,19.1c5.5-0.3,10.2-5.5,13.7-15.3C307.3,742.7,308.8,735.1,308.9,727.4z"/>
		<path class="st0" d="M340.2,702.4c-0.1,3-0.6,5.9-1.3,8.8c-0.7,2.9-1.1,5.8-1.3,8.8v35.6c0.1,3.3,0.6,6.5,1.5,9.6
			c-0.2,0.7-0.9,1.3-1.7,1.4c-5,0.2-7.5-2.2-7.5-7.3v-59.2c1.1-0.7,2.5-1.2,3.8-1.3c1.3,0,2.6,0.4,3.8,1
			C339.2,700.5,340.2,701.3,340.2,702.4z M343.1,678.1c0,3.7-1.6,5.5-4.9,5.7c-2,0.1-3.9-0.7-5.3-2c-1.5-1.2-2.4-3.1-2.4-5.1
			c0-3.7,1.7-5.6,5.2-5.7c1.9-0.1,3.8,0.6,5.3,1.9C342.4,674.2,343.2,676.1,343.1,678.1L343.1,678.1z"/>
		<path class="st0" d="M395.5,747.4c0,2.6-2.1,6.1-6.3,10.5s-7.7,7-10.2,7.9c-2.8,1.1-5.8,1.7-8.9,2c-7.4,0.2-13.1-2.6-17.1-8.1
			c-3.6-4.9-5.5-11.5-5.5-19.5c0-9.1,2.2-19.5,5-28c4.3-12.7,9.4-19.4,15.6-19.5c2.9-0.1,6.9,1.4,11.8,4.3c4.9,3,7.6,5.9,8.2,8.7
			c0.7,3.2,1.1,6.5,1.1,9.8c0,11.8-1.7,17.8-5,17.8c-1,0-2-0.4-2.9-0.9c-1.1-0.6-1.7-1.4-1.7-2.2c0.1-0.6,0.3-1.2,0.6-1.7
			c0.4-0.7,0.7-1.2,0.8-1.4c0.4-1.4,0.6-4.6,0.6-9.7c0-11.9-2.5-17.9-7.6-17.8c-5.6,0.1-10.3,5.7-13.7,16.7c-2.6,7.7-3.9,15.8-4,24
			c0,5.8,0.8,10.7,2.6,14.5c2.3,5,6,7.4,10.8,7.3c3-0.1,6.4-1.8,10.4-5.1c3.2-2.6,5.9-5.8,7.9-9.4c0.4-1.1,1-2.6,1.8-4.6
			c0.5-0.7,1.3-1.2,2.1-1.2c0.6,0,1.3,0.7,2.2,2.2C394.9,745,395.4,746.2,395.5,747.4z"/>
		<path class="st0" d="M503,741.2c-0.1,2.3-0.6,4.6-1.4,6.7c-2.1,6.5-6.5,11.6-13,15.3c-5.9,3.4-12.7,5-19.5,4.8
			c-11.2-0.2-21.4-6.3-26.9-16c-5.6-9.8-7.6-21.7-7.6-32.8c0-10.3,1.3-22.5,4.7-32.2c3.5-9.8,7.8-19.9,15.9-27.2
			c5.2-4.6,10.4-7,15.7-6.9c7.8,0.2,13.7,4.4,17.6,12.5c3,6.4,4.6,14.1,4.6,23.2c-0.1,5.2-0.8,10.5-2,15.6c-1.7,7.7-4,11.5-6.7,11.4
			c-2.1-0.1-3.7-1.3-4.6-3.7c0.6-0.4,1.6-1.1,2.9-2.2c2.7-2.6,4-9.1,4-19.5c0-6.3-1.1-12.5-3.3-18.3c-2.9-7.6-6.8-11.5-11.8-11.7
			c-4-0.1-8.2,2.3-12.5,7.2c-3.4,3.9-6.2,8.2-8.4,12.9c-6,13.5-7.5,27.7-7.8,42c-0.2,10.8,1.8,19.9,5.5,26.5
			c4.6,8.2,11.7,12.5,21.4,12.7c5.1,0.2,10.2-1.2,14.5-4c4.4-2.8,7.9-6.7,10.1-11.4c0.7-2.3,1.5-4.5,2.6-6.7c0.5-1.2,1.7-2,3-2
			C502,737.6,503,738.9,503,741.2z"/>
		<path class="st0" d="M555.8,773.9c0,1.5-1.1,2.2-3.3,2c-2.4-0.2-3.9-1.3-4.4-3.5c-0.2-2.1-0.2-4.2-0.2-6.3c0-0.9-0.1-1.8-0.5-2.6
			c-5.3,3.9-11.9,5.8-18.5,5.4c-4.8-0.4-9.4-2-13.3-4.8c-4.8-3.3-7.3-7.1-7.3-11.7s2.9-8.6,8.7-12.5c5.3-3.6,10.2-5.2,14.7-5
			c6,0.4,9.1,0.5,15.1,1c0.7-1,1-2.1,0.9-3.3c0-7.2-0.6-12.7-1.7-16.4c-1.8-6.2-5.4-9.6-10.8-9.9c-3.9-0.2-7.4,2.1-10.7,7.1
			c-3,4.5-4.4,9-4.4,13.3v1.8c0,0.9-0.4,1.3-1.2,1.2c-1-0.1-2.1-0.8-3.3-2.1s-1.8-2.5-1.8-3.5c0.2-3.9,1.1-7.7,2.6-11.2
			c1.7-4.5,3.6-7.9,5.6-10.1c2.4-2.7,5.9-4.1,9.5-3.8c6,0.4,11.6,2.8,16,6.8c5.2,4.5,7.8,9.8,7.9,15.7
			C555.5,739,555.6,756.4,555.8,773.9z M547.7,747.6c0-4.3-3.2-6.7-9.5-7.1c-4.5-0.4-9,0.3-13.1,2c-4.8,2.1-7.2,5.5-7.2,10.2
			c0,2.8,1.4,5.5,3.8,7c2.3,1.5,4.9,2.4,7.6,2.5c4.5,0.2,8.9-1.1,12.5-3.8C545.6,756.1,547.8,752,547.7,747.6L547.7,747.6z"/>
		<path class="st0" d="M620,781.2c-2.5,1.9-4.6,2.8-6.1,2.6c-2.2-0.2-6.2-4-11.6-11.3c-6.9-9.3-10.6-14.3-11-14.8
			c-2.3-2.6-4.5-5.3-6.4-8.2c-1.9-2.8-4.3-5.4-7-7.5l-2.8,3.6v16c0.1,1.5,0.5,2.9,1.1,4.2c0.6,1.3,1,2.7,1.1,4.2
			c0,0.6-0.4,1.2-1.3,1.7c-0.7,0.5-1.5,0.7-2.4,0.7c-4.1-0.3-6.1-2.8-6.1-7.4v-22.6c0-2.1,0.2-4.1,0.5-6.2c0.3-2.1,0.4-4.1,0.5-6.2
			v-44.5c0.1-5-0.2-10.1-0.7-15.1c-0.2-1.2-0.4-2.4-0.7-3.6c-0.3-1.2-0.4-2.5-0.4-3.7c0-1.1,0.8-2.1,2.4-3c1.2-0.9,2.7-1.3,4.2-1.3
			c1.1,0.1,2.1,0.5,3,1.1c0.9,0.4,1.5,1.3,1.6,2.3c0,0.1-0.2,1.4-0.8,3.8c-0.7,2.8-1.1,8.5-1.1,16.8c-0.2,15.6-0.4,31.1-0.6,46.7
			l0.8,0.9c3.3-1.9,7.7-5.5,13.5-10.8c3.6-3.6,7.1-7.1,10.7-10.6c5.8-5.7,9.2-8.5,10.2-8.3c1.6,0.2,2.9,1.1,3.7,2.5
			c0.9,1.4,1.3,3.1,1.2,4.7l-0.2,0.8c-3.9,2.3-9.6,6.5-17.1,12.8c-8.7,7.2-13,12.2-13,14.8c0,1,1.5,3.5,4.6,7.7
			c4.8,6.3,9.5,12.9,14.2,19.1c6.1,8,11.9,13.4,16.4,16.2L620,781.2z"/>
		<path class="st0" d="M660.5,763.7c0,4.7-3,8.6-9,11.6c-5.4,2.8-10.5,3.8-15.2,3.4c-14.8-1.5-20.7-16.5-20.4-29.7
			c0.2-8.7,1.6-17.3,4.1-25.5c3.6-11.6,8.3-17.2,14-16.5c4.9,0.5,10.2,3.8,16,9.7c5.8,5.9,8.7,11.5,8.7,16.6
			c0.1,6.4-2.7,12.4-7.6,16.5c-4.7,4.2-11,6.2-17.2,5.4c-1.4-0.5-2.7-1.2-3.9-2c-1.2-0.9-2.6-1.6-4-2.1c-1.3-0.2-2,0.2-2,1.1
			c0,12.4,3.9,19,11.6,19.8c3.9,0.5,7.8-0.6,11-2.9c2.6-1.9,4.8-4.2,6.7-6.8c1.9-2.4,3.2-3.6,3.8-3.5
			C659.3,759,660.5,760.7,660.5,763.7z M650,732.7c0-3.8-1-7.6-3-10.9c-2-3.5-4.7-5.5-8.1-5.9c-4.1-0.5-7.4,1.8-9.9,7
			c-2.1,4.3-3.2,8.9-3.2,13.7c-0.1,3,0.9,5.8,2.8,8.1c1.8,2.3,4.4,3.7,7.2,4c4,0.5,7.9-1.2,10.3-4.5
			C648.8,740.9,650.1,736.9,650,732.7L650,732.7z"/>
		<path class="st0" d="M711.5,777.5c0,3.8-2.7,6.6-8,8.3c-4.2,1.4-8.6,1.8-12.9,1.2c-3.3-0.6-6.5-1.8-9.4-3.4
			c-1.9-1.1-5-3.8-9.3-8.1c-4.6-4.6-7-7.7-7-9.2c0-3.3,1.9-4.6,5.6-3.8l0.9,0.1c0.2,3.3,3.5,7.2,9.7,11.9c5.7,4.2,10.2,6.7,13.7,7.2
			c4.4,0.7,6.7-0.6,6.7-3.9c0-1.9-2.7-5.1-8.2-9.3c-7.4-5.7-12.6-10.1-15.3-13.3c-5.6-6.5-8.4-13.4-8.4-20.8
			c0-5.4,1.4-10.8,4.1-15.5c3.2-5.5,7.1-8.1,11.8-7.4c3.4,0.5,7.6,2.8,12.5,6.9c4.8,4.1,7.6,8,8.5,11.5c0.8,3.4,1.2,6.9,1.2,10.3
			c-0.1,4.5-0.8,9.1-2.1,13.4c-0.9,0.6-2.1,0.8-3.2,0.6c-1.2-0.3-2.3-0.7-3.3-1.4c-1.5-0.8-2.3-1.5-2.3-2.2c0,0.4,0.5-0.8,1.7-3.3
			c0.8-1.7,1.2-5,1.2-9.8c0-11.5-3.4-17.8-10.2-18.7c-3.5-0.5-6.3,1.7-8.5,6.4c-1.8,3.8-2.7,7.9-2.7,12.1c0,5.3,2.9,10.8,8.7,16.6
			c1.9,2,7.2,6.5,15.9,13.5C708.6,771.9,711.5,775.3,711.5,777.5z"/>
	</g>
	<path class="st1" d="M167.7,450.2c-11.6-9.3-23.2-18.7-34.6-28.3s-22.6-19.5-33.3-30.1c-5.4-5.3-10.5-10.9-15.3-16.8
		c-2.5-3.1-4.7-6.3-6.7-9.7c-1.1-1.8-2-3.8-2.7-5.8c-0.9-2.5-1.2-5.1-0.8-7.7c0-0.2,0.1-0.4,0.1-0.6l0.1-0.5l0.2-0.8
		c0.2-0.5,0.3-1.1,0.5-1.6c0.4-1.1,0.9-2.1,1.4-3.2c1.1-2,2.4-3.9,4-5.6c3-3,6.4-5.7,10.1-7.7c3.4-2,6.7-3.8,9.8-5.6
		c2.9-1.7,5.7-3.6,8.2-5.7c2.3-1.9,4.3-4.2,6-6.8c1.6-2.5,2.7-5.2,3.5-8c1.5-5.6,1.1-11.6-0.4-17.8c-1.6-6.8-3.6-13.4-5.9-19.9
		c-1.2-3.5-2.6-7.1-3.8-10.9c-1.4-4-2.4-8.1-3.1-12.3c-0.8-4.9-0.7-9.9,0.5-14.7c0.7-2.6,1.7-5.1,3.1-7.5c1.4-2.4,3.2-4.5,5.2-6.4
		c2.1-1.9,4.4-3.4,7-4.6c2.3-1,4.8-1.8,7.3-2.3c4.2-0.8,8.6-1.1,12.9-1c7.9,0,14.8,0.4,21.1-0.5c5.8-0.6,11.4-2.9,16-6.5
		c2.2-1.8,4.2-3.9,5.8-6.3c1.6-2.5,3-5.1,4-7.9c2.1-5.8,3-12.5,3.5-19.6s0.6-14.5,1.4-22.5c0.4-4.3,1.2-8.5,2.3-12.6
		c0.7-2.3,1.5-4.5,2.6-6.7c1.2-2.3,2.6-4.5,4.4-6.5c3.6-4.1,8.3-7.1,13.6-8.6c2.6-0.7,5.3-1.1,8-1.1c2.5,0,4.9,0.3,7.4,0.8
		c4.2,0.9,8.3,2.3,12.3,4c3.7,1.6,7.1,3.2,10.5,4.7c6.6,3.1,12.9,5.7,18.8,6.7c5.5,1.1,11.2,0.4,16.2-2.1c4.9-2.4,8.8-6.5,12.2-12
		s5.9-12,8.7-18.9c1.4-3.5,2.8-7.1,4.5-10.8c1.8-4,4-7.8,6.5-11.4c1.5-2,3.3-3.9,5.2-5.5c4.3-3.6,9.6-5.9,15.2-6.3
		c2.8-0.2,5.6,0,8.4,0.7c4.8,1.3,9.3,3.5,13.2,6.6c3.3,2.5,6.4,5.3,9.3,8.3c5.5,5.6,10.3,11,15.3,15.4s10.2,7.9,15.5,9.3
		c2.6,0.7,5.4,1,8.1,0.8c2.8-0.2,5.5-0.8,8-1.9c5.3-2.1,10.4-6.1,15.3-10.9s9.7-10.4,15.3-16.1c3-3.1,6.3-5.9,9.8-8.4
		c2.1-1.4,4.3-2.6,6.7-3.6c2.7-1.1,5.5-1.7,8.4-1.8c1.5-0.1,3,0,4.5,0.2c1.4,0.2,2.9,0.5,4.3,1c2.8,0.9,5.4,2.3,7.7,4.2
		c2.1,1.7,3.9,3.6,5.5,5.8c1.4,1.9,2.6,3.9,3.6,6c1.8,3.7,3.4,7.5,4.7,11.5c1.3,3.7,2.4,7.3,3.5,10.8c2.3,7,4.6,13.5,7.7,19.1
		s6.9,9.8,11.6,12.1s10,3,16,1.9s12.3-3.8,18.9-6.9c3.3-1.5,6.7-3.2,10.3-4.8c3.8-1.7,7.8-3.2,11.8-4.3c2.3-0.6,4.6-1,7-1.2
		c2.7-0.2,5.4-0.1,8,0.4c2.8,0.5,5.5,1.5,7.9,2.9c2.4,1.4,4.7,3.1,6.6,5.2c1.8,2,3.3,4.3,4.5,6.8c1.1,2.2,1.9,4.6,2.5,7
		c1,4.2,1.6,8.5,1.7,12.9c0.3,8.1-0.1,15.6,0,22.7s0.4,13.9,2,20s4.2,11,8.4,14.8s9.2,6,15.3,7.1s13.1,1,20.5,0.8
		c3.7-0.1,7.6-0.2,11.8,0c4.6,0.1,9.2,0.9,13.6,2.4c2.6,0.9,5,2.2,7.2,3.9c2.3,1.7,4.3,3.8,5.9,6.2c1.6,2.3,2.8,4.9,3.5,7.5
		c0.7,2.6,1.1,5.2,1.2,7.9c0,4.6-0.7,9.2-2,13.6c-1.2,3.9-2.5,7.7-4.1,11.5l-4.4,10.5c-1.4,3.4-2.7,6.7-3.9,9.9
		c-1.2,3-2.2,6.1-3.1,9.2c-0.7,2.7-1,5.4-0.9,8.2c0.2,2.4,1,4.8,2.3,6.8c1.5,2.1,3.4,3.9,5.8,5.1c2.9,1.5,5.9,2.6,9,3.4
		c3.3,0.9,6.9,1.7,10.6,2.5c3.9,0.8,7.7,1.9,11.4,3.1c4.1,1.4,8,3.5,11.3,6.2c1.7,1.5,3.3,3.1,4.6,5c0.3,0.5,0.6,0.9,0.9,1.4
		l0.5,0.8c0.2,0.4,0.4,0.8,0.6,1.2c0.5,1.5,0.7,3.1,0.5,4.6c-0.3,2.3-1,4.6-2.1,6.7c-0.9,1.8-2,3.6-3.1,5.2
		c-2.2,3.2-4.6,6.2-7.2,9.1c-2.5,2.9-5.1,5.6-7.7,8.3c-5.2,5.4-10.7,10.6-16.1,15.7c-10.9,10.2-22.2,20-33.2,30
		c-5.5,5-11.1,10-16.5,15.1c-2.7,2.5-5.4,5.1-8,7.8c-2.6,2.6-5.1,5.4-7.3,8.4c2-3.1,4.3-6.1,6.8-8.9c2.4-2.8,4.9-5.6,7.5-8.3
		c5.1-5.4,10.3-10.8,15.6-16c10.5-10.6,21.1-21,31.4-31.8c5.2-5.3,10.2-10.8,15-16.3c4.8-5.4,9.3-11.2,13.2-17.2
		c0.9-1.4,1.7-2.9,2.4-4.5c0.6-1.2,1-2.6,1.1-3.9c0-0.3,0-0.6-0.1-0.9l0,0l-0.3-0.4c-0.2-0.3-0.5-0.6-0.7-0.9
		c-1-1.1-2.1-2.1-3.3-2.9c-2.7-1.7-5.6-2.8-8.7-3.5c-3.4-0.8-6.9-1.3-10.4-1.7c-3.6-0.4-7.4-0.8-11.4-1.5c-4.2-0.6-8.3-1.7-12.3-3.4
		c-4.5-1.9-8.5-4.8-11.7-8.5c-1.6-1.9-3-4.1-4.1-6.3c-1.1-2.3-1.9-4.7-2.4-7.2c-0.9-4.6-0.9-9.4-0.2-14c0.6-4.2,1.6-8.3,3-12.3
		c1.3-3.8,2.9-7.4,4.5-10.8s3.1-6.8,4.4-10.1c1.3-3.1,2.5-6.3,3.4-9.6c0.8-2.7,1.3-5.5,1.3-8.4c0-1.1-0.2-2.1-0.5-3.2
		c-0.3-0.9-0.7-1.8-1.2-2.5c-0.5-0.7-1.1-1.4-1.8-1.9c-0.8-0.6-1.7-1-2.6-1.3c-2.7-0.9-5.5-1.3-8.3-1.4c-3.3-0.2-6.8-0.1-10.5,0
		c-7.4,0.2-15.5,0.5-24-1c-4.5-0.8-8.8-2.1-12.9-4c-4.3-1.9-8.2-4.5-11.6-7.7c-3.4-3.2-6.3-6.9-8.6-11c-2.2-3.9-3.8-8.2-4.9-12.5
		c-2.2-8.5-2.5-16.6-2.6-24.4s0.3-15.2,0-22c-0.1-3.1-0.5-6.2-1.2-9.2c-0.5-2.2-1.5-4.3-2.9-6c-0.6-0.7-1.4-1.2-2.2-1.7
		c-0.8-0.4-1.6-0.7-2.5-0.9c-2.4-0.3-4.8-0.1-7.1,0.6c-3.1,0.9-6.2,2-9.1,3.3c-3.2,1.4-6.5,3-10,4.6c-6.9,3.2-14.3,6.5-23.1,8.2
		c-4.5,0.9-9.2,1.1-13.8,0.6c-4.8-0.5-9.4-1.9-13.7-4.1c-4.2-2.1-8-5-11.3-8.4c-3-3.3-5.7-6.9-7.8-10.8c-4.2-7.5-6.7-15.1-9.1-22.3
		c-1.2-3.6-2.3-7.1-3.4-10.4c-1-3.1-2.3-6.2-3.8-9.2c-1-2.3-2.5-4.3-4.4-6c-0.6-0.5-1.3-0.9-2.1-1.2c-0.4-0.1-0.8-0.2-1.2-0.3
		c-0.4,0-0.7-0.1-1.1-0.1c-0.9,0.1-1.7,0.2-2.5,0.6c-1.1,0.5-2.2,1-3.1,1.7c-2.6,1.8-4.9,3.9-7.1,6.2c-4.9,4.9-9.8,10.7-15.5,16.3
		c-3,2.9-6.1,5.6-9.4,8.1c-3.6,2.7-7.5,4.9-11.6,6.6c-4.3,1.8-9,2.9-13.7,3.2c-4.7,0.3-9.4-0.2-14-1.4c-4.4-1.2-8.6-3.1-12.5-5.5
		c-3.6-2.2-7-4.8-10.2-7.6c-6.1-5.4-11.2-11.2-16.2-16.2c-2.3-2.4-4.7-4.6-7.3-6.6c-1.9-1.6-4.2-2.8-6.6-3.5
		c-0.9-0.2-1.8-0.3-2.7-0.2c-0.9,0.1-1.8,0.3-2.7,0.6c-1.9,0.9-3.6,2.3-4.8,4.1c-1.8,2.5-3.3,5.2-4.5,8c-1.4,3.1-2.7,6.4-4.1,9.9
		c-2.7,6.9-5.6,14.4-10,21.6c-2.3,3.8-5,7.3-8.1,10.5c-3.3,3.3-7.1,6.1-11.3,8.2c-4.2,2.1-8.8,3.5-13.5,4.1
		c-4.6,0.6-9.3,0.4-13.8-0.4c-8.8-1.6-16.4-5-23.2-8.1c-3.4-1.6-6.7-3.1-9.9-4.5c-2.9-1.3-5.8-2.3-8.9-3c-2.2-0.6-4.6-0.6-6.8,0
		c-1,0.3-1.9,0.7-2.7,1.2c-0.9,0.5-1.6,1.2-2.3,2c-1.5,1.9-2.6,4.1-3.2,6.5c-0.8,3.1-1.4,6.2-1.7,9.4c-0.7,6.8-0.8,14.3-1.4,22
		s-1.6,16-4.5,24.2c-1.5,4.2-3.5,8.3-6,12c-2.6,3.8-5.7,7.2-9.3,10.1c-3.6,2.9-7.6,5.3-11.9,7c-4.2,1.6-8.5,2.8-12.9,3.3
		c-8.5,1.2-16.5,0.6-23.5,0.7c-3.1-0.1-6.3,0.2-9.4,0.7c-1.2,0.2-2.3,0.5-3.4,1c-0.9,0.4-1.6,0.9-2.3,1.5c-0.7,0.7-1.3,1.4-1.8,2.3
		c-0.5,0.9-0.9,1.8-1.2,2.8c-0.5,2.5-0.6,5-0.1,7.5c0.5,3.2,1.3,6.3,2.4,9.4c1.1,3.3,2.3,6.7,3.6,10.2c2.6,7,5.7,14.4,7,22.8
		c0.7,4.3,0.9,8.7,0.6,13c-0.3,4.5-1.3,9-2.9,13.3c-1.6,4.3-3.8,8.3-6.6,11.9c-2.8,3.5-6.1,6.5-9.7,9c-7.1,4.9-14.6,7.5-21,10.4
		c-3,1.3-5.7,2.9-8.3,4.9c-1.1,0.9-2.1,2-2.9,3.1c-0.4,0.6-0.8,1.2-1.1,1.8c-0.2,0.3-0.3,0.7-0.5,1l-0.3,0.8
		c-0.2,1.1-0.1,2.2,0.2,3.3c0.4,1.5,1,3,1.7,4.4c1.6,3.1,3.4,6.1,5.5,9c4.3,6,8.8,11.7,13.7,17.1C124,409.5,145.9,429.8,167.7,450.2
		z"/>
	<g>
		<path class="st2" d="M381.8,270.6c-11.8-12.7-9.7-33.5,7.9-43.2c7.1-3.9,2.4-11.5,3.6-18.9s7.6-18.3,16.1-20.5
			c-0.4,9.5,6.6,18,14.2,25.1c8.1,7.5,17.6,15.1,21.8,25.5c4.6,11.2,0.6,23.8-8.7,31.7c-11.3,9.7-29.8,13.6-44,7.8
			C388.5,276.4,384.8,273.9,381.8,270.6z"/>
		<path class="st1" d="M269.4,563.8c0,1.3,0.6,2.6,1.7,3.3c8,5.5,16.5,10.3,25.3,14.3c9,4.1,26.1,11,64.4,15.6
			c9.2,1.1,42,4.8,87.5,2.3c28.3-1.5,43.5-2.5,63.8-9c16.2-5.2,31.6-12.6,45.8-21.9c1.1-0.7,1.8-2,1.8-3.3
			c0.1-17.2,0.2-34.5,0.4-51.7c0.1-2.1-1.6-3.9-3.8-4c-0.3,0-0.6,0-0.9,0.1h-0.1c-2.7,0.6-12.3,2.7-19.4,0
			c-10.7-4.2-8.9-16.5-21-21.2c-1.9-0.8-5.3-2-8.3-0.5c-3.8,2-3.5,6.9-6.1,13.1c-0.4,1-5.2,11.8-15.3,16.2c-6,2.6-15.8,3.8-22.7-1.3
			c-8.9-6.5-5-17.5-15-24.5c-1-0.7-8.3-5.7-13.5-2.9s-2.8,10.3-9.2,16.2c-0.5,0.5-6.1,5.4-12.3,4.3s-6.7-7.1-16-14.3
			c-4.2-3.3-10.8-8.4-16.4-6.5c-4.5,1.5-4.4,6.1-9.3,12.5c-1.2,1.5-11.2,13.8-24.3,13.6c-8.7-0.2-17.5-6.9-21.5-14.6
			c-4.8-9-2-17.1-7.4-20.3c-3.8-2.2-8.7-0.3-11,0.6c-11.3,4.5-11.6,15.8-20.9,19.4c-2.5,1-6,1.6-11,0.2c-2.1-0.5-4.2,0.8-4.7,2.8
			c-0.1,0.3-0.1,0.7-0.1,1L269.4,563.8z"/>
		<path class="st3" d="M565.2,424.1l-0.5,44.8c0,2.4,0.2,4.8,0.4,7.3c0.3,3.1,0,6.2-0.7,9.2c-2.7,10.5-12.3,20.7-20.4,19.7
			c-8.8-1.2-8-14.9-22.2-23c-2.8-1.6-12.7-7.2-20-3.3c-8.3,4.4-4.8,16.1-15.2,24.9c-1.7,1.4-9.2,7.7-16,5.5
			c-9.2-3-6.5-18.3-19.2-27.4c-1.7-1.2-8.9-6-16.1-4.1c-12.1,3.2-12.9,22.2-20.4,22.3c-6.3,0.2-6.9-13-19.7-19
			c-1.5-0.7-10.7-5.2-18.6-1.5c-7.3,3.5-5.9,10.5-15.7,18.2c-3.4,2.7-8.2,6.4-14,5.7c-7.3-0.9-11.8-8.5-13.2-10.9
			c-4.7-7.8-1.8-11.7-6.8-17.8c-1.1-1.4-5.2-6.4-11.8-7c-5.7-0.5-10,2.9-14.3,6.3c-11.2,8.9-11.5,16.8-17.5,18.1
			c-1.9,0.4-4.3,0.2-7.3-1.7c-6-3.8-9.7-10.3-9.9-17.3l-2-47.8L565.2,424.1z"/>
		<ellipse class="st4" cx="414.7" cy="424.4" rx="150.5" ry="25.8"/>
		<path class="st1" d="M316.1,408.6c0,0.9,0.4,1.7,1.1,2.2c5.2,3.6,10.7,6.8,16.4,9.5c5.8,2.7,16.9,7.3,41.7,10.3
			c18.8,2.2,37.7,2.7,56.6,1.5c18.3-1,28.2-1.7,41.3-5.9c10.5-3.5,20.5-8.4,29.7-14.5c0.7-0.5,1.2-1.3,1.2-2.2
			c0.1-11.4,0.2-22.8,0.2-34.2c0.1-1.4-1-2.6-2.4-2.6c-0.2,0-0.4,0-0.6,0l0,0c-1.8,0.4-8,1.8-12.6,0c-6.9-2.8-5.8-10.9-13.6-14
			c-1.3-0.5-3.4-1.3-5.3-0.3c-2.5,1.3-2.3,4.6-4,8.7c-0.3,0.7-3.3,7.8-9.9,10.7c-3.9,1.8-10.2,2.5-14.7-0.8
			c-5.8-4.3-3.2-11.6-9.8-16.2c-0.6-0.4-5.4-3.8-8.7-1.9s-1.8,6.8-6,10.7c-0.3,0.3-3.9,3.5-8,2.8s-4.3-4.7-10.3-9.5
			c-2.7-2.2-7-5.6-10.6-4.3c-2.9,1-2.8,4-6,8.3c-0.7,1-7.2,9.2-15.8,9c-5.6-0.1-11.3-4.6-14-9.7c-3.1-6-1.3-11.3-4.8-13.4
			c-2.5-1.5-5.6-0.2-7.1,0.4c-7.3,3-7.5,10.5-13.5,12.9c-2.3,0.8-4.8,0.9-7.1,0.2c-1.4-0.3-2.7,0.5-3.1,1.9
			c-0.1,0.2-0.1,0.4-0.1,0.7C316.2,382,316.2,395.3,316.1,408.6z"/>
		<path class="st3" d="M507.6,316.2l-0.3,29.6c0,1.6,0.1,3.2,0.2,4.8c0.2,2,0,4.1-0.5,6.1c-1.8,6.9-8,13.7-13.2,13
			c-5.7-0.8-5.2-9.8-14.4-15.2c-1.8-1.1-8.2-4.8-13-2.2c-5.4,2.9-3.1,10.7-9.9,16.5c-1.1,0.9-6,5.1-10.3,3.7
			c-6-2-4.2-12.1-12.4-18.1c-1.1-0.8-5.7-3.9-10.4-2.7c-7.7,1.9-8.2,13.5-13.2,13.6c-4.1,0.1-4.6-7.7-12.8-11.4
			c-1.2-0.6-7.1-3.4-12-1s-3.8,7.2-10.2,12c-1.9,1.4-4.9,3.7-8.7,3.3c-5.1-0.5-8.2-5.6-8.9-6.7c-3.1-5-1.1-7.6-4.4-11.8
			c-0.7-0.9-3.4-4.3-7.6-4.7c-3.7-0.3-6.5,1.9-9.3,4.2c-7.2,5.9-7.4,11.1-11.3,12c-1.7,0.3-3.4-0.1-4.8-1.1
			c-3.9-2.5-6.3-6.8-6.4-11.4l-1.3-31.6L507.6,316.2z"/>
		<ellipse class="st4" cx="410.1" cy="316.4" rx="97.5" ry="17"/>
	</g>
</g>
</svg>
